<svg xmlns="http://www.w3.org/2000/svg" version="1.1" xmlns:xlink="http://www.w3.org/1999/xlink" xmlns:svgjs="http://svgjs.dev/svgjs" width="1000" height="232" viewBox="0 0 1000 232"><g transform="matrix(1,0,0,1,-0.6060606060605096,0.4833677046573399)"><svg viewBox="0 0 396 92" data-background-color="#fbeaab" preserveAspectRatio="xMidYMid meet" height="232" width="1000" xmlns="http://www.w3.org/2000/svg" xmlns:xlink="http://www.w3.org/1999/xlink"><g id="tight-bounds" transform="matrix(1,0,0,1,0.23999999999995225,-0.19168029667446262)"><svg viewBox="0 0 395.52 92.38336059334895" height="92.38336059334895" width="395.52"><g><svg viewBox="0 0 554.2934216661506 129.46877287698527" height="92.38336059334895" width="395.52"><g><rect width="6.868821382902602" height="129.46877287698527" x="133.92339247460254" y="0" fill="#454545" opacity="1" stroke-width="0" stroke="transparent" fill-opacity="1" class="rect-r$-0" data-fill-palette-color="primary" rx="1%" id="r$-0" data-palette-color="#454545"></rect></g><g transform="matrix(1,0,0,1,158.7734216661507,0.3220616240720915)"><svg viewBox="0 0 395.52 128.8246496288411" height="128.8246496288411" width="395.52"><g id="textblocktransform"><svg viewBox="0 0 395.52 128.8246496288411" height="128.8246496288411" width="395.52" id="textblock"><g><svg viewBox="0 0 395.52 76.16703014556987" height="76.16703014556987" width="395.52"><g transform="matrix(1,0,0,1,0,0)"><svg width="395.52" viewBox="5 -35.5 186.94 36.00178571428572" height="76.16703014556987" data-palette-color="#454545"><path d="M6.05 0L6.05 0Q5.55 0 5.28-0.3 5-0.6 5-1L5-1 5-34Q5-34.4 5.3-34.7 5.6-35 6-35L6-35 19.2-35Q22.15-35 24.38-33.83 26.6-32.65 27.85-30.6 29.1-28.55 29.1-25.95L29.1-25.95Q29.1-23.65 28.28-21.8 27.45-19.95 25.98-18.73 24.5-17.5 22.6-16.95L22.6-16.95 20.3-17.35Q22.3-17.35 24.1-16.32 25.9-15.3 27.05-13.33 28.2-11.35 28.2-8.5L28.2-8.5Q28.2-6.05 28.43-4.78 28.65-3.5 29.03-2.9 29.4-2.3 29.9-1.95L29.9-1.95Q30.2-1.75 30.35-1.45 30.5-1.15 30.4-0.75L30.4-0.75Q30.3-0.45 30.08-0.28 29.85-0.1 29.6-0.05 29.35 0 29.05-0.15L29.05-0.15Q28.35-0.55 27.68-1.35 27-2.15 26.55-3.8 26.1-5.45 26.1-8.5L26.1-8.5Q26.1-10.85 25.38-12.25 24.65-13.65 23.53-14.4 22.4-15.15 21.13-15.4 19.85-15.65 18.8-15.65L18.8-15.65 6.65-15.65 7.1-16.25 7.1-1Q7.1-0.6 6.8-0.3 6.5 0 6.05 0ZM7.1-17.1L6.6-17.65 19.45-17.65Q21.45-17.85 23.15-18.85 24.85-19.85 25.93-21.65 27-23.45 27-25.9L27-25.9Q27-28.95 24.83-30.98 22.65-33 18.95-33L18.95-33 6.85-33 7.1-33.35 7.1-17.1ZM68.6-17.5L68.6-17.5Q68.6-13.5 67.37-10.2 66.15-6.9 63.9-4.5 61.65-2.1 58.6-0.8 55.55 0.5 51.9 0.5L51.9 0.5Q48.25 0.5 45.2-0.8 42.15-2.1 39.9-4.5 37.65-6.9 36.42-10.2 35.2-13.5 35.2-17.5L35.2-17.5Q35.2-21.5 36.42-24.8 37.65-28.1 39.9-30.5 42.15-32.9 45.2-34.2 48.25-35.5 51.9-35.5L51.9-35.5Q55.55-35.5 58.6-34.2 61.65-32.9 63.9-30.5 66.15-28.1 67.37-24.8 68.6-21.5 68.6-17.5ZM66.5-17.5L66.5-17.5Q66.5-22.3 64.62-25.9 62.75-29.5 59.47-31.5 56.2-33.5 51.9-33.5L51.9-33.5Q47.65-33.5 44.35-31.5 41.05-29.5 39.17-25.9 37.3-22.3 37.3-17.5L37.3-17.5Q37.3-12.7 39.17-9.1 41.05-5.5 44.35-3.5 47.65-1.5 51.9-1.5L51.9-1.5Q56.2-1.5 59.47-3.5 62.75-5.5 64.62-9.1 66.5-12.7 66.5-17.5ZM100.85-35L100.85-35Q101.3-35 101.57-34.7 101.85-34.4 101.85-34L101.85-34 101.85-12.4Q101.85-8.85 100.1-5.93 98.35-3 95.45-1.25 92.55 0.5 89 0.5L89 0.5Q85.45 0.5 82.52-1.25 79.6-3 77.85-5.93 76.1-8.85 76.1-12.4L76.1-12.4 76.1-34Q76.1-34.4 76.37-34.7 76.65-35 77.15-35L77.15-35Q77.6-35 77.9-34.7 78.2-34.4 78.2-34L78.2-34 78.2-12.4Q78.2-9.4 79.65-6.93 81.1-4.45 83.57-2.98 86.05-1.5 89-1.5L89-1.5Q92-1.5 94.45-2.98 96.9-4.45 98.37-6.93 99.85-9.4 99.85-12.4L99.85-12.4 99.85-34Q99.85-34.4 100.12-34.7 100.4-35 100.85-35ZM112.84-35L124.84-35Q127.69-35 129.82-33.8 131.94-32.6 133.12-30.45 134.29-28.3 134.29-25.45L134.29-25.45Q134.29-22.65 133.12-20.4 131.94-18.15 129.82-16.85 127.69-15.55 124.84-15.55L124.84-15.55 113.74-15.55 113.94-15.9 113.94-1Q113.94-0.6 113.62-0.3 113.29 0 112.89 0L112.89 0Q112.39 0 112.12-0.3 111.84-0.6 111.84-1L111.84-1 111.84-34Q111.84-34.4 112.14-34.7 112.44-35 112.84-35L112.84-35ZM113.74-17.55L124.84-17.55Q127.14-17.55 128.77-18.57 130.39-19.6 131.29-21.4 132.19-23.2 132.19-25.45L132.19-25.45Q132.19-27.75 131.29-29.43 130.39-31.1 128.77-32.05 127.14-33 124.84-33L124.84-33 113.79-33 113.94-33.25 113.94-17.4 113.74-17.55ZM150.14-32.85L150.89-32.45 138.24-0.65Q138.14-0.35 137.89-0.18 137.64 0 137.34 0L137.34 0Q136.84 0 136.59-0.25 136.34-0.5 136.29-0.85L136.29-0.85Q136.24-1.05 136.34-1.35L136.34-1.35 149.79-34.45Q149.94-34.85 150.17-34.98 150.39-35.1 150.74-35.1L150.74-35.1Q151.14-35.1 151.39-34.93 151.64-34.75 151.74-34.45L151.74-34.45 165.19-1.35Q165.24-1.2 165.24-0.95L165.24-0.95Q165.24-0.5 164.94-0.25 164.64 0 164.19 0L164.19 0Q163.84 0 163.57-0.18 163.29-0.35 163.19-0.65L163.19-0.65 150.14-32.85ZM159.04-10.85L141.64-10.85 142.34-12.85 158.54-12.85 159.04-10.85ZM181.14 0.5L181.14 0.5Q177.24 0.55 174.44-0.8 171.64-2.15 169.04-4.75L169.04-4.75Q168.94-4.85 168.84-5.03 168.74-5.2 168.74-5.5L168.74-5.5Q168.74-5.9 169.09-6.28 169.44-6.65 169.84-6.65L169.84-6.65Q170.29-6.65 170.69-6.2L170.69-6.2Q172.69-3.9 175.36-2.7 178.04-1.5 180.94-1.5L180.94-1.5Q183.49-1.5 185.49-2.33 187.49-3.15 188.64-4.67 189.79-6.2 189.79-8.25L189.79-8.25Q189.74-10.8 188.39-12.35 187.04-13.9 184.91-14.9 182.79-15.9 180.44-16.75L180.44-16.75Q178.59-17.45 176.79-18.2 174.99-18.95 173.54-20.03 172.09-21.1 171.24-22.73 170.39-24.35 170.39-26.75L170.39-26.75Q170.39-29.2 171.71-31.18 173.04-33.15 175.51-34.33 177.99-35.5 181.39-35.5L181.39-35.5Q184.24-35.5 186.94-34.48 189.64-33.45 191.19-31.4L191.19-31.4Q191.69-30.7 191.69-30.35L191.69-30.35Q191.69-30 191.31-29.65 190.94-29.3 190.49-29.3L190.49-29.3Q190.09-29.3 189.84-29.6L189.84-29.6Q188.94-30.8 187.66-31.68 186.39-32.55 184.79-33.02 183.19-33.5 181.39-33.5L181.39-33.5Q178.94-33.5 176.94-32.7 174.94-31.9 173.74-30.43 172.54-28.95 172.54-26.8L172.54-26.8Q172.54-24.5 173.86-23.03 175.19-21.55 177.24-20.58 179.29-19.6 181.44-18.8L181.44-18.8Q183.34-18.15 185.21-17.38 187.09-16.6 188.61-15.45 190.14-14.3 191.04-12.55 191.94-10.8 191.94-8.15L191.94-8.15Q191.94-5.85 190.61-3.9 189.29-1.95 186.89-0.75 184.49 0.45 181.14 0.5Z" opacity="1" transform="matrix(1,0,0,1,0,0)" fill="#454545" class="wordmark-text-0" data-fill-palette-color="primary" id="text-0"></path></svg></g></svg></g><g transform="matrix(1,0,0,1,0,94.14823795421542)"><svg viewBox="0 0 232.209792 34.67641167462566" height="34.67641167462566" width="232.209792"><g transform="matrix(1,0,0,1,0,0)"><svg width="232.209792" viewBox="3.8 -36.55 247.07999999999998 36.9" height="34.67641167462566" data-palette-color="#454545"><path d="M23.1 0L5.3 0Q4.75 0 4.28-0.33 3.8-0.65 3.8-1.3L3.8-1.3 3.8-35.3Q3.8-35.9 4.28-36.23 4.75-36.55 5.3-36.55L5.3-36.55 23.1-36.55Q23.75-36.55 24.05-36.08 24.35-35.6 24.35-35.1L24.35-35.1Q24.35-34.45 24.03-33.98 23.7-33.5 23.1-33.5L23.1-33.5 7.1-33.5 7.1-19.75 14.95-19.75Q15.55-19.75 15.88-19.3 16.2-18.85 16.2-18.25L16.2-18.25Q16.2-17.8 15.9-17.35 15.6-16.9 14.95-16.9L14.95-16.9 7.1-16.9 7.1-3.05 23.1-3.05Q23.7-3.05 24.03-2.6 24.35-2.15 24.35-1.5L24.35-1.5Q24.35-0.95 24.05-0.48 23.75 0 23.1 0L23.1 0ZM40-10.6L27-10.6Q26.45-10.6 26.1-11 25.75-11.4 25.75-12L25.75-12Q25.75-12.65 26.1-13.08 26.45-13.5 27-13.5L27-13.5 40-13.5Q40.5-13.5 40.87-13.08 41.25-12.65 41.25-12L41.25-12Q41.25-11.4 40.87-11 40.5-10.6 40-10.6L40-10.6ZM57.3 0.3L57.3 0.3Q54.5 0.3 52.12-0.75 49.75-1.8 48.35-4.15 46.95-6.5 46.95-10.4L46.95-10.4 46.95-25.9Q46.95-29.75 48.37-32.1 49.8-34.45 52.17-35.5 54.55-36.55 57.4-36.55L57.4-36.55Q60.7-36.55 63-35.4 65.3-34.25 66.52-32.35 67.75-30.45 67.75-28.2L67.75-28.2Q67.75-27 67.32-26.6 66.9-26.2 66.09-26.2L66.09-26.2Q65.2-26.2 64.82-26.58 64.45-26.95 64.45-27.45L64.45-27.45Q64.4-28.25 64.12-29.3 63.85-30.35 63.12-31.3 62.4-32.25 61.02-32.88 59.65-33.5 57.45-33.5L57.45-33.5Q53.95-33.5 52.1-31.65 50.25-29.8 50.25-25.9L50.25-25.9 50.25-10.4Q50.25-6.45 52.12-4.6 54-2.75 57.6-2.75L57.6-2.75Q59.85-2.75 61.15-3.38 62.45-4 63.12-4.93 63.8-5.85 64.05-6.93 64.3-8 64.45-8.9L64.45-8.9Q64.5-9.55 64.9-9.88 65.3-10.2 66.05-10.2L66.05-10.2Q66.9-10.2 67.32-9.78 67.75-9.35 67.75-8.15L67.75-8.15Q67.75-5.9 66.5-3.98 65.25-2.05 62.92-0.88 60.6 0.3 57.3 0.3ZM81.44 0.35L81.44 0.35Q78.89 0.35 76.74-0.98 74.59-2.3 73.27-4.48 71.94-6.65 71.94-9.15L71.94-9.15 71.94-14.6Q71.94-17.1 73.24-19.23 74.54-21.35 76.69-22.65 78.84-23.95 81.44-23.95L81.44-23.95Q83.99-23.95 86.17-22.68 88.34-21.4 89.64-19.3 90.94-17.2 90.94-14.6L90.94-14.6 90.94-9.15Q90.94-6.7 89.64-4.5 88.34-2.3 86.17-0.98 83.99 0.35 81.44 0.35ZM81.44-2.65L81.44-2.65Q83.19-2.65 84.59-3.58 85.99-4.5 86.84-6 87.69-7.5 87.69-9.15L87.69-9.15 87.69-14.6Q87.69-16.2 86.87-17.65 86.04-19.1 84.62-20.03 83.19-20.95 81.44-20.95L81.44-20.95Q79.69-20.95 78.29-20.03 76.89-19.1 76.04-17.65 75.19-16.2 75.19-14.6L75.19-14.6 75.19-9.15Q75.19-7.5 76.04-6 76.89-4.5 78.32-3.58 79.74-2.65 81.44-2.65ZM97.89 0L97.89 0Q97.24 0 96.77-0.4 96.29-0.8 96.29-1.3L96.29-1.3 96.29-22.45Q96.29-23 96.77-23.33 97.24-23.65 97.89-23.65L97.89-23.65Q98.54-23.65 98.99-23.33 99.44-23 99.44-22.45L99.44-22.45 99.44-20.15Q100.29-21.6 101.97-22.78 103.64-23.95 106.09-23.95L106.09-23.95Q108.59-23.95 110.44-22.55 112.29-21.15 113.19-18.95L113.19-18.95Q114.49-21.5 116.57-22.73 118.64-23.95 120.79-23.95L120.79-23.95Q122.94-23.95 124.87-22.85 126.79-21.75 127.99-19.68 129.19-17.6 129.19-14.6L129.19-14.6 129.19-1.3Q129.19-0.8 128.72-0.4 128.24 0 127.54 0L127.54 0Q126.89 0 126.42-0.4 125.94-0.8 125.94-1.3L125.94-1.3 125.94-14.6Q125.94-16.7 125.09-18.1 124.24-19.5 122.94-20.23 121.64-20.95 120.24-20.95L120.24-20.95Q118.79-20.95 117.47-20.2 116.14-19.45 115.27-18.07 114.39-16.7 114.39-14.8L114.39-14.8 114.39-1.25Q114.39-0.6 113.87-0.3 113.34 0 112.74 0L112.74 0Q112.19 0 111.67-0.3 111.14-0.6 111.14-1.25L111.14-1.25 111.14-14.75Q111.14-16.55 110.37-17.95 109.59-19.35 108.29-20.15 106.99-20.95 105.44-20.95L105.44-20.95Q103.99-20.95 102.64-20.2 101.29-19.45 100.42-18.05 99.54-16.65 99.54-14.6L99.54-14.6 99.54-1.3Q99.54-0.8 99.07-0.4 98.59 0 97.89 0ZM136.84 0L136.84 0Q136.19 0 135.71-0.4 135.24-0.8 135.24-1.3L135.24-1.3 135.24-22.45Q135.24-23 135.71-23.33 136.19-23.65 136.84-23.65L136.84-23.65Q137.49-23.65 137.94-23.33 138.39-23 138.39-22.45L138.39-22.45 138.39-20.15Q139.24-21.6 140.91-22.78 142.59-23.95 145.04-23.95L145.04-23.95Q147.54-23.95 149.39-22.55 151.24-21.15 152.14-18.95L152.14-18.95Q153.44-21.5 155.51-22.73 157.59-23.95 159.74-23.95L159.74-23.95Q161.89-23.95 163.81-22.85 165.74-21.75 166.94-19.68 168.14-17.6 168.14-14.6L168.14-14.6 168.14-1.3Q168.14-0.8 167.66-0.4 167.19 0 166.49 0L166.49 0Q165.84 0 165.36-0.4 164.89-0.8 164.89-1.3L164.89-1.3 164.89-14.6Q164.89-16.7 164.04-18.1 163.19-19.5 161.89-20.23 160.59-20.95 159.19-20.95L159.19-20.95Q157.74-20.95 156.41-20.2 155.09-19.45 154.21-18.07 153.34-16.7 153.34-14.8L153.34-14.8 153.34-1.25Q153.34-0.6 152.81-0.3 152.29 0 151.69 0L151.69 0Q151.14 0 150.61-0.3 150.09-0.6 150.09-1.25L150.09-1.25 150.09-14.75Q150.09-16.55 149.31-17.95 148.54-19.35 147.24-20.15 145.94-20.95 144.39-20.95L144.39-20.95Q142.94-20.95 141.59-20.2 140.24-19.45 139.36-18.05 138.49-16.65 138.49-14.6L138.49-14.6 138.49-1.3Q138.49-0.8 138.01-0.4 137.54 0 136.84 0ZM184.09 0.35L184.09 0.35Q180.94 0.35 178.51-0.85 176.09-2.05 174.71-4.17 173.34-6.3 173.34-9.15L173.34-9.15 173.34-14.75Q173.34-17.25 174.64-19.35 175.94-21.45 178.11-22.7 180.29-23.95 182.89-23.95L182.89-23.95Q185.39-23.95 187.51-22.78 189.64-21.6 190.94-19.55 192.24-17.5 192.24-14.85L192.24-14.85Q192.24-12.9 191.59-12.08 190.94-11.25 189.96-11.05 188.99-10.85 187.89-10.85L187.89-10.85 176.59-10.85 176.59-9Q176.59-6 178.74-4.25 180.89-2.5 184.19-2.5L184.19-2.5Q186.19-2.5 187.29-3 188.39-3.5 189.01-4 189.64-4.5 190.19-4.5L190.19-4.5Q190.59-4.5 190.91-4.23 191.24-3.95 191.41-3.6 191.59-3.25 191.59-2.95L191.59-2.95Q191.59-2.4 190.69-1.6 189.79-0.8 188.09-0.23 186.39 0.35 184.09 0.35ZM176.59-15.15L176.59-13.25 186.59-13.25Q188.09-13.25 188.59-13.58 189.09-13.9 189.09-14.95L189.09-14.95Q189.09-16.55 188.31-18 187.54-19.45 186.11-20.35 184.69-21.25 182.84-21.25L182.84-21.25Q181.14-21.25 179.71-20.43 178.29-19.6 177.44-18.23 176.59-16.85 176.59-15.15L176.59-15.15ZM198.68 0L198.68 0Q198.03 0 197.56-0.4 197.08-0.8 197.08-1.3L197.08-1.3 197.08-22.45Q197.08-23 197.56-23.33 198.03-23.65 198.68-23.65L198.68-23.65Q199.33-23.65 199.78-23.33 200.23-23 200.23-22.45L200.23-22.45 200.23-20Q200.78-21 201.73-21.9 202.68-22.8 203.98-23.38 205.28-23.95 206.93-23.95L206.93-23.95 208.68-23.95Q209.23-23.95 209.61-23.53 209.98-23.1 209.98-22.45L209.98-22.45Q209.98-21.85 209.61-21.4 209.23-20.95 208.68-20.95L208.68-20.95 206.93-20.95Q205.28-20.95 203.76-20.08 202.23-19.2 201.28-17.57 200.33-15.95 200.33-13.65L200.33-13.65 200.33-1.3Q200.33-0.8 199.86-0.4 199.38 0 198.68 0ZM221.43 0.35L221.43 0.35Q218.13 0.35 215.98-0.9 213.83-2.15 212.78-4.3 211.73-6.45 211.73-9.15L211.73-9.15 211.73-14.5Q211.73-17.15 212.76-19.3 213.78-21.45 215.96-22.7 218.13-23.95 221.43-23.95L221.43-23.95Q223.53-23.95 225.11-23.43 226.68-22.9 227.56-22.15 228.43-21.4 228.43-20.7L228.43-20.7Q228.43-20.4 228.26-20.03 228.08-19.65 227.76-19.38 227.43-19.1 227.03-19.1L227.03-19.1Q226.58-19.1 226.01-19.58 225.43-20.05 224.43-20.5 223.43-20.95 221.58-20.95L221.58-20.95Q218.33-20.95 216.66-19.23 214.98-17.5 214.98-14.5L214.98-14.5 214.98-9.15Q214.98-6.1 216.66-4.38 218.33-2.65 221.63-2.65L221.63-2.65Q223.53-2.65 224.58-3.13 225.63-3.6 226.21-4.08 226.78-4.55 227.28-4.55L227.28-4.55Q227.73-4.55 228.06-4.3 228.38-4.05 228.56-3.7 228.73-3.35 228.73-2.95L228.73-2.95Q228.73-2.3 227.83-1.53 226.93-0.75 225.31-0.2 223.68 0.35 221.43 0.35ZM242.73 0.35L242.73 0.35Q239.58 0.35 237.15-0.85 234.73-2.05 233.35-4.17 231.98-6.3 231.98-9.15L231.98-9.15 231.98-14.75Q231.98-17.25 233.28-19.35 234.58-21.45 236.75-22.7 238.93-23.95 241.53-23.95L241.53-23.95Q244.03-23.95 246.15-22.78 248.28-21.6 249.58-19.55 250.88-17.5 250.88-14.85L250.88-14.85Q250.88-12.9 250.23-12.08 249.58-11.25 248.6-11.05 247.63-10.85 246.53-10.85L246.53-10.85 235.23-10.85 235.23-9Q235.23-6 237.38-4.25 239.53-2.5 242.83-2.5L242.83-2.5Q244.83-2.5 245.93-3 247.03-3.5 247.65-4 248.28-4.5 248.83-4.5L248.83-4.5Q249.23-4.5 249.55-4.23 249.88-3.95 250.05-3.6 250.23-3.25 250.23-2.95L250.23-2.95Q250.23-2.4 249.33-1.6 248.43-0.8 246.73-0.23 245.03 0.35 242.73 0.35ZM235.23-15.15L235.23-13.25 245.23-13.25Q246.73-13.25 247.23-13.58 247.73-13.9 247.73-14.95L247.73-14.95Q247.73-16.55 246.95-18 246.18-19.45 244.75-20.35 243.33-21.25 241.48-21.25L241.48-21.25Q239.78-21.25 238.35-20.43 236.93-19.6 236.08-18.23 235.23-16.85 235.23-15.15L235.23-15.15Z" opacity="1" transform="matrix(1,0,0,1,0,0)" fill="#454545" class="slogan-text-1" data-fill-palette-color="secondary" id="text-1"></path></svg></g></svg></g></svg></g></svg></g><g transform="matrix(1,0,0,1,0,0.3220616240720915)"><svg viewBox="0 0 115.94218466595697 128.8246496288411" height="128.8246496288411" width="115.94218466595697"><g><svg xmlns="http://www.w3.org/2000/svg" xmlns:xlink="http://www.w3.org/1999/xlink" version="1.1" x="0" y="0" viewBox="9.5 5 81 90" enable-background="new 0 0 100 100" xml:space="preserve" height="128.8246496288411" width="115.94218466595697" class="icon-icon-0" data-fill-palette-color="accent" id="icon-0"><g fill="#454545" data-fill-palette-color="accent"><path fill="#454545" d="M72.5 32v-9c0-9.94-8.058-18-18-18h-9c-9.94 0-18 8.06-18 18v9h-18v47.25C9.5 87.949 16.551 95 25.25 95h49.5c8.699 0 15.75-7.051 15.75-15.75V32H72.5zM36.5 23c0-4.964 4.039-9 9-9h9c4.964 0 9 4.036 9 9v9h-27V23zM27.5 50h9v9h-9V50zM45.5 77h-9v-9h9V77zM45.5 50h9v9h-9V50zM63.5 77h-9v-9h9V77zM72.5 59h-9v-9h9V59z" data-fill-palette-color="accent"></path></g></svg></g></svg></g></svg></g><defs></defs></svg><rect width="395.52" height="92.38336059334895" fill="none" stroke="none" visibility="hidden"></rect></g></svg></g></svg>